<?xml version="1.0" standalone="no"?>
<!DOCTYPE svg PUBLIC "-//W3C//DTD SVG 20010904//EN"
 "http://www.w3.org/TR/2001/REC-SVG-20010904/DTD/svg10.dtd">
<svg version="1.0" xmlns="http://www.w3.org/2000/svg"
 width="375.000000pt" height="375.000000pt" viewBox="0 0 375.000000 375.000000"
 preserveAspectRatio="xMidYMid meet">
<metadata>
Created by potrace 1.10, written by Peter Selinger 2001-2011
</metadata>
<g transform="translate(0.000000,375.000000) scale(0.050000,-0.050000)"
fill="#000000" stroke="none">
<path d="M3628 6355 c-28 -47 -67 -108 -87 -135 -19 -28 -41 -70 -49 -94 -7
-23 -25 -47 -40 -52 -36 -14 -137 -190 -122 -213 6 -11 -8 -29 -31 -41 -48
-26 -205 -336 -190 -375 6 -15 -3 -32 -20 -38 -17 -7 -53 -54 -80 -104 -26
-51 -89 -147 -138 -213 -50 -66 -106 -151 -125 -190 -19 -38 -60 -100 -91
-136 -30 -36 -55 -81 -55 -100 -1 -19 -18 -56 -40 -84 -22 -27 -39 -61 -40
-75 0 -14 -9 -25 -19 -25 -11 0 -38 -38 -60 -85 -58 -120 -144 -275 -192 -345
-23 -33 -67 -109 -98 -170 -31 -60 -85 -155 -121 -210 -36 -55 -77 -136 -92
-180 -14 -44 -41 -98 -60 -120 -18 -22 -48 -69 -66 -105 -18 -36 -41 -65 -51
-65 -21 0 -116 -152 -226 -360 -44 -82 -139 -240 -211 -350 -73 -110 -169
-272 -215 -360 -45 -88 -147 -263 -226 -390 -149 -238 -154 -292 -22 -250 41
13 694 14 919 2 82 -5 165 0 183 10 21 11 39 11 46 -1 8 -12 215 -16 547 -10
294 5 570 9 614 9 494 -5 920 0 1005 11 61 7 105 5 105 -6 0 -11 135 -19 325
-18 179 0 420 -1 535 -3 1656 -24 1664 -23 1533 182 -69 109 -141 232 -547
934 -137 236 -261 443 -276 460 -15 16 -60 93 -101 170 -118 224 -353 610
-371 610 -9 0 -24 -14 -33 -31 -15 -26 -21 -23 -40 18 -18 41 -17 52 8 62 28
10 28 16 -1 61 -18 27 -32 59 -32 71 0 38 -122 200 -141 188 -12 -7 -10 -29 3
-55 13 -25 14 -35 2 -24 -41 40 -83 167 -57 176 35 13 -15 85 -55 78 -37 -7
-44 29 -9 40 16 6 11 27 -17 67 -22 33 -116 187 -208 344 -92 157 -179 285
-194 285 -14 0 -21 -9 -14 -20 7 -11 9 -20 4 -20 -13 0 -214 317 -214 337 0
10 -20 43 -45 74 -25 31 -81 122 -125 203 -156 288 -321 536 -425 640 l-105
105 -52 -84z m67 -748 l-1 -462 -62 2 -62 3 -6 -122 -6 -123 -154 -24 c-85
-13 -208 -49 -274 -80 -167 -77 -226 -95 -198 -59 12 15 33 60 48 98 15 39 53
101 84 140 31 38 56 82 56 98 0 16 12 43 26 60 14 18 57 100 95 182 38 83 76
153 85 157 17 7 134 257 134 286 0 48 -58 3 -119 -94 -38 -59 -73 -104 -78
-99 -5 5 14 43 41 85 78 116 180 296 306 535 l60 114 13 -117 c8 -64 13 -325
12 -580z m200 387 c2 -8 22 -39 44 -67 23 -29 41 -60 41 -70 0 -9 74 -136 164
-282 172 -280 264 -437 415 -716 50 -93 114 -201 140 -240 40 -57 42 -63 8
-34 -22 19 -47 35 -55 35 -8 0 -43 21 -78 46 -76 56 -316 149 -414 162 -38 5
-106 21 -150 35 l-80 27 -14 410 c-19 592 -53 824 -80 560 -5 -40 -12 -4 -17
85 l-9 154 41 -44 c23 -25 43 -52 44 -61z m895 -1244 c31 -55 47 -91 35 -80
-35 32 -225 351 -225 376 0 23 70 -87 190 -296z m-1200 -305 c2 -96 10 -283
17 -415 7 -132 14 -451 15 -710 2 -258 11 -513 20 -567 13 -72 11 -103 -9
-123 -27 -27 -28 -141 -4 -430 29 -332 64 -431 110 -315 16 40 19 37 20 -25 1
-63 -4 -70 -54 -70 -46 0 -56 9 -55 50 0 43 -9 50 -65 50 -36 0 -65 5 -65 13
0 7 -34 18 -75 26 -167 29 -319 95 -443 191 -70 54 -158 109 -195 121 -37 12
-67 34 -67 49 0 15 -33 70 -72 122 -40 52 -98 148 -129 214 -31 65 -76 140
-100 165 -25 26 -39 60 -32 77 6 17 -2 82 -19 146 -32 122 -34 335 -4 473 10
46 22 110 27 142 14 91 116 296 207 416 45 60 82 115 82 123 0 21 113 132 134
132 9 0 48 26 86 57 39 32 109 79 158 105 48 26 106 59 130 73 23 13 62 25 87
25 25 0 45 8 45 17 0 15 220 61 238 49 4 -3 10 -84 12 -181z m557 146 c13 -17
81 -54 152 -83 72 -28 156 -74 187 -100 31 -26 65 -48 74 -48 26 0 340 -283
340 -307 0 -6 36 -63 80 -125 44 -63 80 -124 80 -136 0 -12 20 -60 45 -107 57
-108 98 -113 88 -10 -4 41 -4 57 1 35 6 -22 17 -49 25 -60 9 -11 27 -96 41
-190 43 -289 116 -371 95 -107 -6 70 -6 127 -1 127 23 0 85 -94 85 -130 1 -40
55 -136 211 -376 45 -68 110 -180 146 -249 36 -69 92 -167 124 -219 33 -52 60
-102 60 -113 0 -11 -35 35 -78 101 -90 140 -113 158 -152 126 -33 -28 28 -173
81 -193 16 -6 29 -33 29 -60 0 -26 25 -85 55 -131 56 -85 92 -143 177 -290
l48 -84 -95 -12 c-52 -7 -142 -22 -200 -33 -58 -11 -132 -14 -164 -7 -32 7
-272 14 -534 16 -504 4 -562 15 -469 84 36 26 44 28 26 6 -18 -23 -19 -36 -4
-46 22 -14 252 196 323 295 70 97 18 106 -67 12 -58 -63 -52 -52 22 43 253
323 407 875 280 1002 -54 54 -52 57 -75 -162 -35 -337 -111 -518 -333 -792
-128 -159 -348 -325 -497 -376 -53 -18 -110 -46 -126 -62 -21 -21 -72 -30
-164 -30 -78 0 -145 -10 -159 -24 -13 -13 -25 -20 -27 -15 -4 16 -18 268 -15
289 1 11 5 166 8 344 3 178 11 331 16 340 6 10 12 76 14 147 1 71 5 174 8 229
5 96 11 638 8 720 -1 22 0 90 1 150 2 61 3 128 3 150 0 22 2 147 5 277 l5 237
97 -11 c54 -6 108 -25 120 -42z m-2093 -1453 c2 -55 12 -111 22 -124 27 -35
43 -113 24 -124 -8 -5 -3 -43 11 -85 15 -41 28 -90 28 -108 1 -18 18 -68 38
-110 20 -42 66 -137 100 -210 35 -73 77 -138 94 -144 16 -7 29 -22 29 -35 0
-31 271 -300 368 -365 l74 -51 -593 4 c-326 2 -598 -4 -603 -13 -6 -9 -43 -10
-83 -3 -40 8 -125 16 -188 17 -81 2 -115 11 -115 29 0 36 102 210 134 230 14
9 26 38 26 66 0 27 21 70 48 94 26 24 62 76 79 114 18 39 69 133 113 210 45
77 86 156 93 175 6 19 18 35 25 35 8 0 71 113 141 250 150 293 130 272 135
148z m384 -517 c-1 -46 -3 -45 -28 19 -36 93 -35 119 1 71 16 -21 28 -62 27
-90z m2442 -880 c78 -14 66 -16 -90 -18 -123 -2 -170 4 -150 17 35 23 115 23
240 1z"/>
<path d="M6020 1241 c0 -38 -12 -61 -35 -67 -33 -9 -33 -9 0 -12 26 -1 35 -20
35 -72 0 -38 9 -70 20 -70 11 0 20 32 20 70 0 49 9 70 30 70 17 0 30 9 30 20
0 11 -13 20 -30 20 -19 0 -30 19 -30 50 0 28 -9 50 -20 50 -11 0 -20 -26 -20
-59z"/>
<path d="M1309 1157 c-47 -93 -45 -92 -98 -26 -67 83 -81 52 -18 -40 48 -70
50 -82 28 -155 -28 -94 -12 -128 20 -44 122 316 150 427 68 265z"/>
<path d="M1466 1200 c-62 -25 -93 -90 -66 -140 29 -53 127 -53 177 1 l38 41
11 -41 c22 -86 194 -48 194 43 0 93 -35 119 -44 31 -9 -100 -129 -100 -121 0
3 36 -4 65 -15 65 -11 0 -20 -10 -20 -21 0 -12 -20 -8 -44 10 -51 35 -50 35
-110 11z m104 -40 c36 -58 -51 -134 -122 -106 -34 13 -37 69 -4 102 29 29 109
32 126 4z"/>
<path d="M1857 1120 c7 -106 43 -141 43 -42 0 70 29 96 120 106 58 7 63 11 32
25 -23 11 -62 8 -100 -6 -40 -15 -64 -16 -69 -3 -18 54 -32 9 -26 -80z"/>
<path d="M2334 1206 l-57 -9 6 -160 c5 -160 37 -246 37 -103 1 65 10 80 64
106 116 55 138 191 30 177 -13 -2 -49 -7 -80 -11z m118 -49 c16 -26 -60 -97
-104 -97 -28 0 -40 82 -15 107 22 22 104 15 119 -10z"/>
<path d="M2517 1120 c7 -106 43 -141 43 -42 0 70 29 96 120 106 58 7 63 11 32
25 -23 11 -62 8 -100 -6 -40 -15 -64 -16 -69 -3 -18 54 -32 9 -26 -80z"/>
<path d="M2760 1120 c0 -55 9 -100 20 -100 11 0 20 45 20 100 0 55 -9 100 -20
100 -11 0 -20 -45 -20 -100z"/>
<path d="M2961 1148 l-46 -78 -31 65 c-28 57 -64 87 -64 53 0 -25 88 -168 103
-168 22 0 101 158 92 185 -4 12 -28 -14 -54 -57z"/>
<path d="M3100 1163 c-101 -101 -55 -185 63 -117 48 27 57 28 57 3 0 -16 7
-29 16 -29 9 0 11 43 5 95 -14 118 -57 132 -141 48z m120 1 c0 -36 -65 -104
-101 -104 -48 0 -50 35 -6 83 33 37 107 51 107 21z"/>
<path d="M3370 1201 c-185 -75 -88 -233 99 -161 79 30 49 49 -35 21 -75 -25
-134 -11 -134 31 0 37 93 95 129 81 16 -6 34 -4 40 6 8 13 -38 46 -56 40 -1
-1 -21 -9 -43 -18z"/>
<path d="M3712 1144 l-37 -81 -49 58 c-76 91 -95 70 -27 -29 59 -86 60 -90 32
-170 -16 -45 -21 -82 -12 -82 20 0 145 337 136 365 -4 11 -23 -17 -43 -61z"/>
<path d="M4040 1194 c-82 -41 -72 -162 14 -170 42 -4 76 6 102 32 36 36 39 36
60 3 30 -47 205 -46 202 1 -7 78 -33 153 -36 99 -5 -120 -142 -146 -142 -27 0
56 -6 68 -25 52 -18 -15 -37 -12 -64 8 -47 34 -48 34 -111 2z m116 -69 c7 -49
-70 -94 -126 -72 -36 13 -38 35 -9 90 31 56 127 44 135 -18z"/>
<path d="M4444 1130 c3 -53 16 -100 28 -104 15 -5 19 11 13 43 -13 70 27 111
107 111 38 0 68 9 68 20 0 25 -100 26 -139 1 -19 -12 -39 -11 -57 4 -22 18
-25 4 -20 -75z"/>
<path d="M4916 1206 l-55 -9 10 -162 c10 -173 29 -237 29 -98 0 58 8 83 28 83
40 0 152 97 152 131 0 28 -63 72 -94 66 -9 -2 -40 -7 -70 -11z m116 -49 c16
-26 -60 -97 -104 -97 -28 0 -40 82 -15 107 22 22 104 15 119 -10z"/>
<path d="M5100 1183 c0 -72 25 -163 45 -163 11 0 14 22 7 49 -16 62 32 111
109 111 33 0 59 9 59 20 0 25 -62 26 -129 0 -33 -12 -51 -12 -51 0 0 11 -9 20
-20 20 -11 0 -20 -17 -20 -37z"/>
<path d="M5340 1131 c0 -49 9 -94 20 -101 12 -8 20 26 20 89 0 55 -9 101 -20
101 -11 0 -20 -40 -20 -89z"/>
<path d="M5490 1196 c-89 -50 -99 -148 -16 -169 113 -28 220 104 134 167 -43
31 -66 32 -118 2z m110 -66 c0 -52 -81 -104 -122 -79 -55 34 1 129 76 129 36
0 46 -11 46 -50z"/>
<path d="M5664 1130 c3 -53 16 -100 28 -104 15 -5 19 11 13 43 -13 70 27 111
107 111 38 0 68 9 68 20 0 25 -100 26 -139 1 -19 -12 -39 -11 -57 4 -22 18
-25 4 -20 -75z"/>
<path d="M5900 1120 c0 -55 9 -100 20 -100 11 0 20 45 20 100 0 55 -9 100 -20
100 -11 0 -20 -45 -20 -100z"/>
<path d="M6309 1157 c-47 -93 -45 -92 -98 -26 -67 83 -81 52 -18 -40 48 -70
50 -82 28 -155 -28 -94 -12 -128 20 -44 122 316 150 427 68 265z"/>
</g>
</svg>
